<?xml version="1.0" encoding="UTF-8"?>
<svg version="1.1" xmlns="http://www.w3.org/2000/svg" width="195" height="177">
<path d="M0 0 C19.66629812 6.64467746 35.72774083 20.18088469 45.25 38.625 C54.14406751 56.84349313 56.34728892 77.62844488 49.74072266 97.03369141 C46.03265094 106.87706966 41.11119355 116.19825666 34 124 C33.27296875 124.81855469 32.5459375 125.63710937 31.796875 126.48046875 C19.05251441 140.06760157 1.45735939 148.51807001 -17.2265625 149.3359375 C-39.59249562 149.7134216 -59.35882986 144.3662433 -76.09765625 128.91015625 C-90.75854452 114.60509144 -98.98925319 95.64165745 -99.36352539 75.28125 C-99.41990879 60.693545 -99.41990879 60.693545 -95.8125 55.1875 C-92.8253084 53.23037447 -90.46957964 53.58125763 -87 54 C-84.125 55.4375 -84.125 55.4375 -82 58 C-80.56247876 62.94081376 -81.02043038 68.16299544 -81.125 73.25 C-81.19890468 89.12103039 -75.06684638 103.63505675 -64 115 C-51.11201175 126.42759298 -36.83574771 131.62434405 -19.7109375 131.30859375 C-5.83264974 130.15450456 9.44006743 124.5321291 19 114 C28.8821151 102.09176459 36.01195283 87.32068112 35.27734375 71.453125 C33.15868684 52.71345544 26.26866256 38.3731192 11.625 26.1875 C1.01131066 18.41022764 -11.13343324 15.53686751 -24.125 14.5625 C-28.4353009 13.93681116 -30.19934026 13.32578344 -33 10 C-34.1659741 5.99196403 -34.43240501 3.94717289 -32.6875 0.125 C-26.62131021 -7.51390566 -7.84236417 -2.28124846 0 0 Z " fill="#E6E33E" transform="translate(139,28)"/>
<path d="M0 0 C0.74830078 0.67675781 0.74830078 0.67675781 1.51171875 1.3671875 C1.51171875 2.0271875 1.51171875 2.6871875 1.51171875 3.3671875 C0.61864014 3.49565063 0.61864014 3.49565063 -0.29248047 3.62670898 C-2.98327754 4.01580003 -5.67327357 4.41017751 -8.36328125 4.8046875 C-9.30042969 4.93939453 -10.23757812 5.07410156 -11.203125 5.21289062 C-12.54697266 5.41108398 -12.54697266 5.41108398 -13.91796875 5.61328125 C-14.74538574 5.73372803 -15.57280273 5.8541748 -16.42529297 5.97827148 C-18.54155892 6.27975422 -18.54155892 6.27975422 -20.48828125 7.3671875 C-12.56828125 7.3671875 -4.64828125 7.3671875 3.51171875 7.3671875 C-0.87155502 21.97810006 -8.31897452 31.784586 -21.3359375 39.73046875 C-45.78364745 52.4238894 -75.61899138 50.21406514 -101.48828125 43.3671875 C-100.11095126 39.26434736 -98.25184466 36.69876366 -95.30078125 33.5546875 C-94.49511719 32.68585938 -93.68945312 31.81703125 -92.859375 30.921875 C-92.07691406 30.07882813 -91.29445313 29.23578125 -90.48828125 28.3671875 C-89.27432191 26.97624435 -88.06543958 25.58084256 -86.86328125 24.1796875 C-65.5518947 -0.08623219 -30.76196705 -21.31798794 0 0 Z " fill="#8CE052" transform="translate(101.48828125,31.6328125)"/>
<path d="M0 0 C3 0.25 3 0.25 5 2.25 C6.18725234 11.40880373 2.1285664 19.74081598 -3.25 27 C-9.60445077 34.55960523 -17.09881305 41.87971585 -27 44.25 C-31.26506024 42.98493976 -31.26506024 42.98493976 -33 41.25 C-33.47058824 35.83823529 -33.47058824 35.83823529 -31.78125 33.7265625 C-29.72101309 32.01873454 -27.59185293 30.79456466 -25.25 29.5 C-15.03288176 23.43219179 -10.81068004 15.99192249 -6.3125 5.25 C-4.16756757 0.3472973 -4.16756757 0.3472973 0 0 Z " fill="#E6E33E" transform="translate(164,107.75)"/>
<path d="M0 0 C2.60186108 2.60186108 2.29810177 3.82354355 2.3125 7.4375 C2.33763672 8.88962891 2.33763672 8.88962891 2.36328125 10.37109375 C2 13 2 13 0.671875 14.85546875 C-1 16 -1 16 -4.0625 15.875 C-7 15 -7 15 -9 12 C-9.30078125 9.84375 -9.30078125 9.84375 -9.3125 7.5 C-9.32925781 6.7265625 -9.34601563 5.953125 -9.36328125 5.15625 C-8.46026463 -0.20359057 -4.80375779 -0.51103806 0 0 Z " fill="#E6E33E" transform="translate(168,90)"/>
</svg>
